<?xml version="1.0" encoding="UTF-8"?>
<svg width="468px" height="322px" viewBox="0 0 468 322" version="1.1" xmlns="http://www.w3.org/2000/svg" xmlns:xlink="http://www.w3.org/1999/xlink">
    <title>Artboard</title>
    <g id="Artboard" stroke="none" stroke-width="1" fill="none" fill-rule="evenodd">
        <g id="cloud" fill="#000000" fill-rule="nonzero">
            <path d="M128.8755,39.284 C158.11032,14.0548633 195.397132,0.121145626 234,0 C312.6825,0 377.99775,58.5454545 385.1055,134.039818 C431.6715,140.626182 468,179.646727 468,227.536909 C468,280.110727 424.1835,322 371.09475,322 L110.59425,322 C49.959,322 0,274.168364 0,214.217818 C0,162.61 37.0305,119.871818 86.0535,109.040909 C90.23625,83.7785455 106.47,58.604 128.8755,39.284 Z M147.97575,61.4434545 C125.8335,80.5585455 114.2505,103.596182 114.2505,121.628182 L114.2505,134.742364 L101.23425,136.176727 C60.372,140.655455 29.25,174.231273 29.25,214.217818 C29.25,257.160909 65.2275,292.727273 110.59425,292.727273 L371.09475,292.727273 C408.915,292.727273 438.75,263.103273 438.75,227.536909 C438.75,191.941273 408.915,162.317273 371.09475,162.317273 L356.46975,162.317273 L356.46975,147.680909 C356.499,82.6954545 302.094,29.2727273 234,29.2727273 C202.406371,29.3990321 171.897576,40.8188724 147.97575,61.4727273 L147.97575,61.4434545 Z" id="Shape"></path>
        </g>
        <path d="M234,29.7727273 C267.438205,29.7727273 297.562861,42.7058089 319.50885,63.577887 C341.62278,84.6096892 355.43218,113.702725 355.954354,145.738816 L355.954354,145.738816 L355.96975,147.680909 L355.96975,162.817273 L371.09475,162.817273 C389.754679,162.817273 406.457393,170.079995 418.538518,181.726195 C430.758613,193.506362 438.25,209.771578 438.25,227.536909 C438.25,245.095577 430.919757,261.193593 418.93337,272.938253 C407.063762,284.568488 390.628468,291.929993 372.223026,292.218425 L372.223026,292.218425 L371.09475,292.227273 L110.59425,292.227273 C88.1578879,292.227273 68.0311623,283.476669 53.4709394,269.42386 C38.77497,255.240036 29.75,235.654471 29.75,214.217818 C29.75,194.586862 37.3009895,176.511679 49.8375099,162.710777 C62.4227126,148.856282 80.0318853,139.308913 100.069424,136.816409 L100.069424,136.816409 L101.289017,136.673719 L114.7505,135.190291 L114.7505,121.628182 C114.7505,103.881227 126.069325,81.2751263 147.64266,62.3954479 L147.64266,62.3954479 L148.302241,61.8221414 C172.133831,41.2753571 202.527534,29.8985517 234,29.7727273 Z" id="Combined-Shape" stroke="#979797" fill="#FFFFFF"></path>
    </g>
</svg>