<?xml version="1.0" standalone="no"?>
<!DOCTYPE svg PUBLIC "-//W3C//DTD SVG 20010904//EN"
 "http://www.w3.org/TR/2001/REC-SVG-20010904/DTD/svg10.dtd">
<svg version="1.0" xmlns="http://www.w3.org/2000/svg"
 width="512.000000pt" height="512.000000pt" viewBox="0 0 512.000000 512.000000"
 preserveAspectRatio="xMidYMid meet">
<metadata>
Created by potrace 1.14, written by Peter Selinger 2001-2017
</metadata>
<g transform="translate(0.000000,512.000000) scale(0.100000,-0.100000)"
fill="#000000" stroke="none">
<path d="M2332 4155 c-353 -54 -690 -227 -928 -476 -144 -151 -261 -349 -305
-515 l-22 -84 -41 -10 c-71 -18 -198 -71 -267 -111 -328 -190 -528 -512 -546
-880 -10 -199 26 -361 120 -542 139 -268 396 -470 704 -555 l98 -27 1465 0
c1368 0 1470 1 1540 18 345 81 613 334 717 674 24 80 27 103 27 248 0 146 -3
168 -28 249 -52 170 -131 300 -257 422 -138 133 -320 227 -499 258 l-36 6 -18
107 c-101 596 -566 1069 -1186 1203 -126 28 -405 35 -538 15z m435 -295 c387
-63 728 -315 899 -665 80 -164 106 -272 111 -477 l5 -168 72 0 c103 0 221 -16
296 -39 192 -60 363 -230 426 -424 38 -117 38 -267 0 -384 -81 -248 -297 -420
-571 -454 -50 -6 -590 -9 -1440 -6 -1250 3 -1365 4 -1425 20 -245 65 -427 204
-534 408 -64 121 -88 217 -88 354 -1 182 48 329 158 472 144 188 340 288 622
318 l62 7 0 81 c0 113 22 206 74 312 165 341 559 603 986 655 84 10 253 5 347
-10z"/>
</g>
</svg>
