<?xml version="1.0" encoding="UTF-8"?>
<svg width="512px" height="512px" viewBox="0 0 512 512" version="1.1" xmlns="http://www.w3.org/2000/svg" xmlns:xlink="http://www.w3.org/1999/xlink">
    <title>Artboard</title>
    <g id="Artboard" stroke="none" stroke-width="1" fill="none" fill-rule="evenodd">
        <rect fill="#9DCAFF" x="0" y="0" width="512" height="512"></rect>
        <g id="cloud" transform="translate(22.000000, 95.000000)" fill="#000000" fill-rule="nonzero">
            <path d="M128.8755,39.284 C158.11032,14.0548633 195.397132,0.121145626 234,0 C312.6825,0 377.99775,58.5454545 385.1055,134.039818 C431.6715,140.626182 468,179.646727 468,227.536909 C468,280.110727 424.1835,322 371.09475,322 L110.59425,322 C49.959,322 0,274.168364 0,214.217818 C0,162.61 37.0305,119.871818 86.0535,109.040909 C90.23625,83.7785455 106.47,58.604 128.8755,39.284 Z M147.97575,61.4434545 C125.8335,80.5585455 114.2505,103.596182 114.2505,121.628182 L114.2505,134.742364 L101.23425,136.176727 C60.372,140.655455 29.25,174.231273 29.25,214.217818 C29.25,257.160909 65.2275,292.727273 110.59425,292.727273 L371.09475,292.727273 C408.915,292.727273 438.75,263.103273 438.75,227.536909 C438.75,191.941273 408.915,162.317273 371.09475,162.317273 L356.46975,162.317273 L356.46975,147.680909 C356.499,82.6954545 302.094,29.2727273 234,29.2727273 C202.406371,29.3990321 171.897576,40.8188724 147.97575,61.4727273 L147.97575,61.4434545 Z" id="Shape"></path>
        </g>
        <path d="M256,124.772727 C289.438205,124.772727 319.562861,137.705809 341.50885,158.577887 C363.62278,179.609689 377.43218,208.702725 377.954354,240.738816 L377.954354,240.738816 L377.96975,242.680909 L377.96975,257.817273 L393.09475,257.817273 C411.754679,257.817273 428.457393,265.079995 440.538518,276.726195 C452.758613,288.506362 460.25,304.771578 460.25,322.536909 C460.25,340.095577 452.919757,356.193593 440.93337,367.938253 C429.063762,379.568488 412.628468,386.929993 394.223026,387.218425 L394.223026,387.218425 L393.09475,387.227273 L132.59425,387.227273 C110.157888,387.227273 90.0311623,378.476669 75.4709394,364.42386 C60.77497,350.240036 51.75,330.654471 51.75,309.217818 C51.75,289.586862 59.3009895,271.511679 71.8375099,257.710777 C84.4227126,243.856282 102.031885,234.308913 122.069424,231.816409 L122.069424,231.816409 L123.289017,231.673719 L136.7505,230.190291 L136.7505,216.628182 C136.7505,198.881227 148.069325,176.275126 169.64266,157.395448 L169.64266,157.395448 L170.302241,156.822141 C194.133831,136.275357 224.527534,124.898552 256,124.772727 Z" id="Combined-Shape" stroke="#979797" fill="#FFFFFF"></path>
    </g>
</svg>